<?xml version="1.0" standalone="no"?>
<!DOCTYPE svg PUBLIC "-//W3C//DTD SVG 20001102//EN"
	"http://www.w3.org/TR/2000/CR-SVG-20001102/DTD/svg-20001102.dtd">
<svg xmlns="http://www.w3.org/2000/svg" width="1280" height="1280">
	<path style="fill:#ffffcc;fill-opacity:1;stroke:#ffffcc;stroke-opacity:1;stroke-width:4;" d="M 478.2,67.4 Q 516.4,67.4,543.5,98.8 Q 570.6,130.2,570.6,174.5 Q 570.6,218.8,543.5,250.2 Q 516.4,281.6,478.2,281.6 Q 440,281.6,412.9,250.2 Q 385.8,218.8,385.8,174.5 Q 385.8,130.2,412.9,98.8 Q 440,67.4,478.2,67.4 Z "/>
	<path style="fill:#26e9d8;fill-opacity:1;stroke:#26e9d8;stroke-opacity:1;stroke-width:4;" d="M 516,40 Q 554.2,40,581.3,67.1 Q 608.4,94.2,608.4,132.4 Q 608.4,170.6,581.3,197.7 Q 554.2,224.8,516,224.8 Q 477.8,224.8,450.7,197.7 Q 423.6,170.6,423.6,132.4 Q 423.6,94.2,450.7,67.1 Q 477.8,40,516,40 Z "/>
	<path style="fill:#ffffcc;fill-opacity:1;stroke:#ffffcc;stroke-opacity:1;stroke-width:4;" d="M 502.8,117.4 Q 541,117.4,568.1,148.8 Q 595.2,180.2,595.2,224.5 Q 595.2,268.8,568.1,300.2 Q 541,331.6,502.8,331.6 Q 464.6,331.6,437.5,300.2 Q 410.4,268.8,410.4,224.5 Q 410.4,180.2,437.5,148.8 Q 464.6,117.4,502.8,117.4 Z "/>
	<path style="fill:#26e9d8;fill-opacity:1;stroke:#26e9d8;stroke-opacity:1;stroke-width:4;" d="M 546.6,104 Q 584.8,104,611.9,131.3 Q 639,158.6,639,197.2 Q 639,235.8,611.9,263.1 Q 584.8,290.4,546.6,290.4 Q 508.4,290.4,481.3,263.1 Q 454.2,235.8,454.2,197.2 Q 454.2,158.6,481.3,131.3 Q 508.4,104,546.6,104 Z "/>
	<path style="fill:#ffffcc;fill-opacity:1;stroke:#ffffcc;stroke-opacity:1;stroke-width:4;" d="M 629.7,82 Q 725.4,82,793.3,161.3 Q 861.2,240.6,861.2,352.5 Q 861.2,464.4,793.3,543.7 Q 725.4,623,629.7,623 Q 534,623,466.1,543.7 Q 398.2,464.4,398.2,352.5 Q 398.2,240.6,466.1,161.3 Q 534,82,629.7,82 Z "/>
	<path style="fill:#26e9d8;fill-opacity:1;stroke:#26e9d8;stroke-opacity:1;stroke-width:4;" d="M 683.3,80.4 Q 751.6,80.4,800,131.9 Q 848.4,183.4,848.4,255.9 Q 848.4,328.4,800,379.9 Q 751.6,431.4,683.3,431.4 Q 615,431.4,566.6,379.9 Q 518.2,328.4,518.2,255.9 Q 518.2,183.4,566.6,131.9 Q 615,80.4,683.3,80.4 Z "/>
	<path style="fill:#ffffcc;fill-opacity:1;stroke:#ffffcc;stroke-opacity:1;stroke-width:4;" d="M 739.2,105.4 Q 857.4,105.4,941.2,166.5 Q 1025,227.6,1025,313.9 Q 1025,400.2,941.2,461.4 Q 857.4,522.6,739.2,522.6 Q 621,522.6,537.1,461.4 Q 453.2,400.2,453.2,313.9 Q 453.2,227.6,537.1,166.5 Q 621,105.4,739.2,105.4 Z "/>
	<path style="fill:#26e9d8;fill-opacity:1;stroke:#26e9d8;stroke-opacity:1;stroke-width:4;" d="M 1166.3,664.6 Q 1266.2,664.6,1337,736.1 Q 1407.8,807.6,1407.8,908.4 Q 1407.8,1009.2,1337,1080.7 Q 1266.2,1152.2,1166.3,1152.2 Q 1066.4,1152.2,995.5,1080.7 Q 924.6,1009.2,924.6,908.4 Q 924.6,807.6,995.5,736.1 Q 1066.4,664.6,1166.3,664.6 Z "/>
	<path style="fill:#ffffcc;fill-opacity:1;stroke:#ffffcc;stroke-opacity:1;stroke-width:4;" d="M 1210.4,661.8 Q 1305.2,661.8,1372.1,719.4 Q 1439,777,1439,858.4 Q 1439,939.8,1372.1,997.5 Q 1305.2,1055.2,1210.4,1055.2 Q 1115.6,1055.2,1048.6,997.5 Q 981.6,939.8,981.6,858.4 Q 981.6,777,1048.6,719.4 Q 1115.6,661.8,1210.4,661.8 Z "/>
	<path style="fill:#ffffcc;fill-opacity:1;stroke:#ffffcc;stroke-opacity:1;stroke-width:4;" d="M 1105.8,622.6 Q 1199.2,622.6,1258.5,624.1 Q 1317.8,625.6,1317.8,800.3 Q 1317.8,975,1266.8,1009.1 Q 1215.8,1043.2,1122.8,1043.2 Q 1029.8,1043.2,963.8,919.3 Q 897.8,795.4,897.8,620.7 Q 897.8,446,955.1,534.3 Q 1012.4,622.6,1105.8,622.6 Z "/>
	<path style="fill:#ffffcc;fill-opacity:1;stroke:#ffffcc;stroke-opacity:1;stroke-width:4;" d="M 1071.2,574.2 Q 1166,574.2,1232.9,631.8 Q 1299.8,689.4,1299.8,770.8 Q 1299.8,852.2,1232.9,909.9 Q 1166,967.6,1071.2,967.6 Q 976.4,967.6,909.4,909.9 Q 842.4,852.2,842.4,770.8 Q 842.4,689.4,909.4,631.8 Q 976.4,574.2,1071.2,574.2 Z "/>
	<path style="fill:#26e9d8;fill-opacity:1;stroke:#26e9d8;stroke-opacity:1;stroke-width:4;" d="M 1248.5,572 Q 1348.4,572,1419.2,643.5 Q 1490,715,1490,815.8 Q 1490,916.6,1419.2,988.1 Q 1348.4,1059.6,1248.5,1059.6 Q 1148.6,1059.6,1077.7,988.1 Q 1006.8,916.6,1006.8,815.8 Q 1006.8,715,1077.7,643.5 Q 1148.6,572,1248.5,572 Z "/>
	<path style="fill:#26e9d8;fill-opacity:1;stroke:#26e9d8;stroke-opacity:1;stroke-width:4;" d="M 855.8,160.4 Q 942,160.4,1003,209.4 Q 1064,258.4,1064,327.5 Q 1064,396.6,1003,445.6 Q 942,494.6,855.8,494.6 Q 769.6,494.6,708.5,445.6 Q 647.4,396.6,647.4,327.5 Q 647.4,258.4,708.5,209.4 Q 769.6,160.4,855.8,160.4 Z "/>
	<path style="fill:#ffffcc;fill-opacity:1;stroke:#ffffcc;stroke-opacity:1;stroke-width:4;" d="M 1009,593.2 Q 1085.4,593.2,1139.3,624.7 Q 1193.2,656.2,1193.2,700.5 Q 1193.2,744.8,1139.3,776.3 Q 1085.4,807.8,1009,807.8 Q 932.6,807.8,878.5,776.3 Q 824.4,744.8,824.4,700.5 Q 824.4,656.2,878.5,624.7 Q 932.6,593.2,1009,593.2 Z "/>
	<path style="fill:#26e9d8;fill-opacity:1;stroke:#26e9d8;stroke-opacity:1;stroke-width:4;" d="M 1129.9,574.4 Q 1177.8,574.4,1211.8,601.5 Q 1245.8,628.6,1245.8,666.8 Q 1245.8,705,1211.8,732.1 Q 1177.8,759.2,1129.9,759.2 Q 1082,759.2,1048,732.1 Q 1014,705,1014,666.8 Q 1014,628.6,1048,601.5 Q 1082,574.4,1129.9,574.4 Z "/>
	<path style="fill:#ffffcc;fill-opacity:1;stroke:#ffffcc;stroke-opacity:1;stroke-width:4;" d="M 1024.1,412.2 Q 1100.8,412.2,1155,469.3 Q 1209.2,526.4,1209.2,607 Q 1209.2,687.6,1155,744.7 Q 1100.8,801.8,1024.1,801.8 Q 947.4,801.8,893,744.7 Q 838.6,687.6,838.6,607 Q 838.6,526.4,893,469.3 Q 947.4,412.2,1024.1,412.2 Z "/>
	<path style="fill:#26e9d8;fill-opacity:1;stroke:#26e9d8;stroke-opacity:1;stroke-width:4;" d="M 1104.7,465.2 Q 1154.2,465.2,1188.1,503.7 Q 1222,542.2,1222,597.3 Q 1222,652.4,1188.1,690.9 Q 1154.2,729.4,1098.4,726.4 Q 1042.6,723.4,1008.1,684.9 Q 973.6,646.4,979.9,594.3 Q 986.2,542.2,1020.7,503.7 Q 1055.2,465.2,1104.7,465.2 Z "/>
	<path style="fill:#26e9d8;fill-opacity:1;stroke:#26e9d8;stroke-opacity:1;stroke-width:4;" d="M 1226.3,189.8 Q 1303,189.8,1357.2,246.9 Q 1411.4,304,1411.4,384.6 Q 1411.4,465.2,1357.2,522.3 Q 1303,579.4,1226.3,579.4 Q 1149.6,579.4,1095.2,522.3 Q 1040.8,465.2,1040.8,384.6 Q 1040.8,304,1095.2,246.9 Q 1149.6,189.8,1226.3,189.8 Z "/>
	<path style="fill:#ffffcc;fill-opacity:1;stroke:#ffffcc;stroke-opacity:1;stroke-width:4;" d="M 733.3,142 Q 892.6,142,1005.2,258.2 Q 1117.8,374.4,1117.8,538.3 Q 1117.8,702.2,1005.2,818.6 Q 892.6,935,733.3,935 Q 574,935,461.2,818.6 Q 348.4,702.2,348.4,538.3 Q 348.4,374.4,461.2,258.2 Q 574,142,733.3,142 Z "/>
	<path style="fill:#26e9d8;fill-opacity:1;stroke:#26e9d8;stroke-opacity:1;stroke-width:4;" d="M 860.5,330.6 Q 967.6,330.6,1043.4,402.5 Q 1119.2,474.4,1119.2,575.6 Q 1119.2,676.8,1043.4,748.5 Q 967.6,820.2,860.5,820.2 Q 753.4,820.2,677.5,748.5 Q 601.6,676.8,601.6,575.6 Q 601.6,474.4,677.5,402.5 Q 753.4,330.6,860.5,330.6 Z "/>
	<path style="fill:#ffffcc;fill-opacity:1;stroke:#ffffcc;stroke-opacity:1;stroke-width:4;" d="M 887.7,280.4 Q 964,280.4,1018,351.4 Q 1072,422.4,1072,522.7 Q 1072,623,1018,694.1 Q 964,765.2,887.7,765.2 Q 811.4,765.2,757.2,694.1 Q 703,623,703,522.7 Q 703,422.4,757.2,351.4 Q 811.4,280.4,887.7,280.4 Z "/>
	<path style="fill:#26e9d8;fill-opacity:1;stroke:#26e9d8;stroke-opacity:1;stroke-width:4;" d="M 821.5,344.2 Q 928.6,344.2,1004.4,416.1 Q 1080.2,488,1080.2,589.2 Q 1080.2,690.4,1003.8,760.4 Q 927.4,830.4,820.6,830.4 Q 713.8,830.4,638.5,760.4 Q 563.2,690.4,562.9,589.2 Q 562.6,488,638.5,416.1 Q 714.4,344.2,821.5,344.2 Z "/>
	<path style="fill:#ffffcc;fill-opacity:1;stroke:#ffffcc;stroke-opacity:1;stroke-width:4;" d="M 696.7,265.4 Q 855.6,264.2,968.2,380.4 Q 1080.8,496.6,1081.5,638 Q 1082.2,779.4,942.2,839.7 Q 802.2,900,634.8,924.1 Q 467.4,948.2,387.1,889 Q 306.8,829.8,307.2,667.1 Q 307.6,504.4,422.7,385.5 Q 537.8,266.6,696.7,265.4 Z "/>
	<path style="fill:#26e9d8;fill-opacity:1;stroke:#26e9d8;stroke-opacity:1;stroke-width:4;" d="M 1079.1,559.7 Q 1109,582.2,1140.8,602.9 Q 1172.6,623.6,1189.3,644.7 Q 1206,665.8,1174.2,696.2 Q 1142.4,726.6,1096.4,726.2 Q 1050.4,725.8,1018.1,695.4 Q 985.8,665,985.2,621.8 Q 984.6,578.6,1016.9,557.9 Q 1049.2,537.2,1079.1,559.7 Z "/>
	<path style="fill:#ffffcc;fill-opacity:1;stroke:#ffffcc;stroke-opacity:1;stroke-width:4;" d="M 1051.1,519.9 Q 1065,552.4,1059.3,582.3 Q 1053.6,612.2,1058.9,629.5 Q 1064.2,646.8,1057.2,670 Q 1050.2,693.2,1043.3,695.2 Q 1036.4,697.2,1010,667.4 Q 983.6,637.6,984,592.3 Q 984.4,547,1010.8,517.2 Q 1037.2,487.4,1051.1,519.9 Z "/>
	<path style="fill:#26e9d8;fill-opacity:1;stroke:#26e9d8;stroke-opacity:1;stroke-width:4;" d="M 1056.4,549.4 Q 1069.8,549.4,1078.9,571.6 Q 1088,593.8,1088,625.7 Q 1088,657.6,1078.9,679.8 Q 1069.8,702,1056.4,702 Q 1043,702,1033.7,679.8 Q 1024.4,657.6,1024.4,625.7 Q 1024.4,593.8,1033.7,571.6 Q 1043,549.4,1056.4,549.4 Z "/>
	<path style="fill:#26e9d8;fill-opacity:1;stroke:#26e9d8;stroke-opacity:1;stroke-width:4;" d="M 1097.5,600.8 Q 1124.2,600.8,1142.5,618.9 Q 1160.8,637,1160.8,663.1 Q 1160.8,689.2,1142.5,707.3 Q 1124.2,725.4,1097.5,725.4 Q 1070.8,725.4,1052.2,707.3 Q 1033.6,689.2,1033.6,663.1 Q 1033.6,637,1052.2,618.9 Q 1070.8,600.8,1097.5,600.8 Z "/>
	<path style="fill:#ffffcc;fill-opacity:1;stroke:#ffffcc;stroke-opacity:1;stroke-width:4;" d="M 783.1,785.9 Q 846.8,787.4,891.4,843.9 Q 936,900.4,935.5,978.5 Q 935,1056.6,890.4,1113.2 Q 845.8,1169.8,782.6,1169.8 Q 719.4,1169.8,674.7,1113.2 Q 630,1056.6,630,977 Q 630,897.4,674.7,840.9 Q 719.4,784.4,783.1,785.9 Z "/>
	<path style="fill:#ffffcc;fill-opacity:1;stroke:#ffffcc;stroke-opacity:1;stroke-width:4;" d="M 948.3,756.8 Q 976.2,756.8,995.9,782.8 Q 1015.6,808.8,1015.6,845.5 Q 1015.6,882.2,995.9,908.2 Q 976.2,934.2,948.3,934.2 Q 920.4,934.2,900.7,908.2 Q 881,882.2,881,845.5 Q 881,808.8,900.7,782.8 Q 920.4,756.8,948.3,756.8 Z "/>
	<path style="fill:#ffffcc;fill-opacity:1;stroke:#ffffcc;stroke-opacity:1;stroke-width:4;" d="M 149.3,461.2 Q 225.6,461.2,281.9,509.3 Q 338.2,557.4,338.2,657.7 Q 338.2,758,284.2,829.1 Q 230.2,900.2,153.9,900.2 Q 77.6,900.2,23.4,829.1 Q -30.8,758,-30.8,657.7 Q -30.8,557.4,21.1,509.3 Q 73,461.2,149.3,461.2 Z "/>
	<path style="fill:#26e9d8;fill-opacity:1;stroke:#26e9d8;stroke-opacity:1;stroke-width:4;" d="M 38.7,339.6 Q 142.8,339.6,213.5,428.6 Q 284.2,517.6,284.2,645.2 Q 284.2,772.8,213.5,861.8 Q 142.8,950.8,38.7,950.8 Q -65.4,950.8,-137.7,861.8 Q -210,772.8,-210,645.2 Q -210,517.6,-137.7,428.6 Q -65.4,339.6,38.7,339.6 Z "/>
	<path style="fill:#ffffcc;fill-opacity:1;stroke:#ffffcc;stroke-opacity:1;stroke-width:4;" d="M 413.7,351.6 Q 504.6,351.6,568.8,412 Q 633,472.4,633,557.7 Q 633,643,569.1,703.6 Q 505.2,764.2,414.3,764.2 Q 323.4,764.2,258.8,703.6 Q 194.2,643,194.2,557.7 Q 194.2,472.4,258.5,412 Q 322.8,351.6,413.7,351.6 Z "/>
	<path style="fill:#ffffcc;fill-opacity:1;stroke:#ffffcc;stroke-opacity:1;stroke-width:4;" d="M 435.5,335.4 Q 530,335.4,596.9,396.3 Q 663.8,457.2,663.8,543 Q 663.8,628.8,596.8,689.1 Q 529.8,749.4,435.3,748.1 Q 340.8,746.8,273.9,687.8 Q 207,628.8,207,543 Q 207,457.2,274,396.3 Q 341,335.4,435.5,335.4 Z "/>
	<path style="fill:#ffffcc;fill-opacity:1;stroke:#ffffcc;stroke-opacity:1;stroke-width:4;" d="M 293,392.4 Q 294.2,383.6,340.1,576.7 Q 386,769.8,368.8,892.3 Q 351.6,1014.8,330.2,1072.9 Q 308.8,1131,306.7,1128 Q 304.6,1125,278.3,994.7 Q 252,864.4,245.6,762.7 Q 239.2,661,265.5,531.1 Q 291.8,401.2,293,392.4 Z "/>
	<path style="fill:#ffcc66;fill-opacity:0.529411764705882;stroke:#ffcc66;stroke-opacity:0;stroke-width:4;" d="M 608.4,283.2 Q 732.8,334.6,822.6,558 Q 912.4,781.4,1012,809.4 L 1012,809.4 Q 1024.4,847,1011.8,880.2 L 1011.8,880.2 Q 1056.8,1020.2,1198.4,1057 L 1198.4,1057 Q 1152,1054.2,1129.6,1044.6 L 1129.6,1044.6 Q 1047.2,1049.2,983,955.6 L 983,955.6 Q 940.6,935.2,934,936 L 934,936 Q 938.2,956.6,930,960.6 Q 921.8,964.6,771.9,862.5 Q 622,760.4,604.9,752.4 Q 587.8,744.4,594.3,737.4 Q 600.8,730.4,620.8,675.6 Q 640.8,620.8,644.1,507.1 Q 647.4,393.4,516.9,344.9 Q 386.4,296.4,435.2,264.1 Q 484,231.8,608.4,283.2 Z "/>
	<path style="fill:#ffcc66;fill-opacity:0.529411764705882;stroke:#ffcc66;stroke-opacity:0;stroke-width:4;" d="M 721.5,652.5 Q 686.4,705,685,720.1 Q 683.6,735.2,765.8,767.7 Q 848,800.2,897.6,869.4 Q 947.2,938.6,895.8,927.8 Q 844.4,917,714,843.5 Q 583.6,770,595.2,712.8 Q 606.8,655.6,612.2,593.1 Q 617.6,530.6,681.2,518.6 Q 744.8,506.6,750.7,553.3 Q 756.6,600,721.5,652.5 Z "/>
	<path style="fill:#ff7f69;fill-opacity:1;stroke:#ff7f69;stroke-opacity:1;stroke-width:4;" d="M 715.7,727.8 Q 767.2,722.8,778.8,721.8 Q 790.4,720.8,790.4,763 Q 790.4,805.2,772.2,871.2 Q 754,937.2,695.2,937.2 Q 636.4,937.2,584.7,903.6 Q 533,870,542.3,836 Q 551.6,802,607.9,767.4 Q 664.2,732.8,715.7,727.8 Z "/>
	<path style="fill:#ff7f69;fill-opacity:1;stroke:#ff7f69;stroke-opacity:1;stroke-width:4;" d="M 603.6,806.4 Q 687.8,806.4,747.9,840.9 Q 808,875.4,795.2,941 Q 782.4,1006.6,695.1,1176.2 Q 607.8,1345.8,527.6,1341.8 Q 447.4,1337.8,428.6,1152.2 Q 409.8,966.6,405.8,921.8 Q 401.8,877,460.6,841.7 Q 519.4,806.4,603.6,806.4 Z "/>
	<path style="fill:#ff7f69;fill-opacity:1;stroke:#ff7f69;stroke-opacity:1;stroke-width:4;" d="M 613,803.2 Q 528.4,872.2,604.2,928.3 Q 680,984.4,626.5,1042.9 Q 573,1101.4,584.8,1233.5 Q 596.6,1365.6,895.3,1337.6 Q 1194,1309.6,1150.7,1253 Q 1107.4,1196.4,1007.6,1049.7 Q 907.8,903,802.7,818.6 Q 697.6,734.2,613,803.2 Z "/>
	<path style="fill:#ff749b;fill-opacity:1;stroke:#ff749b;stroke-opacity:1;stroke-width:4;" d="M 1125.2,1124.6 Q 1184.8,1124.6,1226.9,1161 Q 1269,1197.4,1269,1248.5 Q 1269,1299.6,1226.9,1335.9 Q 1184.8,1372.2,1125.2,1372.2 Q 1065.6,1372.2,1023.5,1335.9 Q 981.4,1299.6,981.4,1248.5 Q 981.4,1197.4,1023.5,1161 Q 1065.6,1124.6,1125.2,1124.6 Z "/>
	<path style="fill:#ff749b;fill-opacity:1;stroke:#ff749b;stroke-opacity:1;stroke-width:4;" d="M 1035.5,1112.8 Q 1163,1112.4,1253.1,1182.8 Q 1343.2,1253.2,1343.2,1352.4 Q 1343.2,1451.6,1253.1,1521.8 Q 1163,1592,1035.5,1592 Q 908,1592,817.9,1521.8 Q 727.8,1451.6,727.8,1352.8 Q 727.8,1254,817.9,1183.6 Q 908,1113.2,1035.5,1112.8 Z "/>
	<path style="fill:#ff749b;fill-opacity:1;stroke:#ff749b;stroke-opacity:1;stroke-width:4;" d="M 812.7,1112.8 Q 940.2,1112.8,1030.3,1183.2 Q 1120.4,1253.6,1120.4,1352.4 Q 1120.4,1451.2,1030.3,1521.4 Q 940.2,1591.6,812.7,1591.6 Q 685.2,1591.6,595.1,1521.4 Q 505,1451.2,505,1352.4 Q 505,1253.6,595.1,1183.2 Q 685.2,1112.8,812.7,1112.8 Z "/>
	<path style="fill:#ff749b;fill-opacity:1;stroke:#ff749b;stroke-opacity:1;stroke-width:4;" d="M 1052,1089.6 Q 1090.4,1089.6,1117.6,1120.9 Q 1144.8,1152.2,1144.8,1196 Q 1144.8,1239.8,1117.6,1271 Q 1090.4,1302.2,1052,1302.2 Q 1013.6,1302.2,986.4,1271 Q 959.2,1239.8,959.2,1196 Q 959.2,1152.2,986.4,1120.9 Q 1013.6,1089.6,1052,1089.6 Z "/>
	<path style="fill:#cc0033;fill-opacity:1;stroke:#cc0033;stroke-opacity:1;stroke-width:4;" d="M 701.6,1161.6 Q 843.8,1161.6,945.8,1138.8 Q 1047.8,1116,1052.1,1077.3 Q 1056.4,1038.6,955.4,1017.7 Q 854.4,996.8,750.5,985.9 Q 646.6,975,566.6,990.9 Q 486.6,1006.8,443,1058.4 Q 399.4,1110,479.4,1135.8 Q 559.4,1161.6,701.6,1161.6 Z "/>
	<path style="fill:#ff7f69;fill-opacity:1;stroke:#ff7f69;stroke-opacity:1;stroke-width:4;" d="M 763.2,944.6 Q 862.6,944.6,933.2,966.6 Q 1003.8,988.6,1003.8,1019.6 Q 1003.8,1050.6,933.2,1072.7 Q 862.6,1094.8,763.2,1094.8 Q 663.8,1094.8,593.2,1072.7 Q 522.6,1050.6,522.6,1019.6 Q 522.6,988.6,593.2,966.6 Q 663.8,944.6,763.2,944.6 Z "/>
	<path style="fill:#26e9d8;fill-opacity:1;stroke:#26e9d8;stroke-opacity:1;stroke-width:4;" d="M 1012,1005 Q 1041.2,1020.6,1085.5,1047.2 Q 1129.8,1073.8,1157.2,1080.1 Q 1184.6,1086.4,1170.1,1107.8 Q 1155.6,1129.2,1103.2,1113.8 Q 1050.8,1098.4,993.5,1026.7 Q 936.2,955,958.5,957.4 Q 980.8,959.8,981.8,974.6 Q 982.8,989.4,1012,1005 Z "/>
	<path style="fill:#ff7f69;fill-opacity:1;stroke:#ff7f69;stroke-opacity:1;stroke-width:4;" d="M 551.1,1342.1 Q 638,1421.4,658,1362.5 Q 678,1303.6,618.6,1138.2 Q 559.2,972.8,539.2,914.2 Q 519.2,855.6,491.7,855.6 Q 464.2,855.6,444.2,914.2 Q 424.2,972.8,424.2,1058.9 Q 424.2,1145,444.2,1203.9 Q 464.2,1262.8,551.1,1342.1 Z "/>
	<path style="fill:#ff7f69;fill-opacity:1;stroke:#ff7f69;stroke-opacity:1;stroke-width:4;" d="M 299.8,194.3 Q 341.2,200,379,223.4 Q 416.8,246.8,407.8,247.7 Q 398.8,248.6,350.7,244.3 Q 302.6,240,278.9,250.4 Q 255.2,260.8,248.3,247.3 Q 241.4,233.8,231.7,217.8 Q 222,201.8,240.2,195.2 Q 258.4,188.6,299.8,194.3 Z "/>
	<path style="fill:#ff7f69;fill-opacity:1;stroke:#ff7f69;stroke-opacity:1;stroke-width:4;" d="M 375,267.1 Q 415.4,262.6,423.1,261.6 Q 430.8,260.6,446.2,275.2 Q 461.6,289.8,421.7,296.6 Q 381.8,303.4,345.2,334.8 Q 308.6,366.2,293.9,369.5 Q 279.2,372.8,268,336.1 Q 256.8,299.4,295.7,285.5 Q 334.6,271.6,375,267.1 Z "/>
	<path style="fill:#ff7f69;fill-opacity:1;stroke:#ff7f69;stroke-opacity:1;stroke-width:4;" d="M 272,335.9 Q 324.2,318.8,348.5,347.2 Q 372.8,375.6,335.4,380 Q 298,384.4,250.3,430.6 Q 202.6,476.8,191.5,500.9 Q 180.4,525,157.2,492.5 Q 134,460,130.3,448.6 Q 126.6,437.2,173.2,395.1 Q 219.8,353,272,335.9 Z "/>
	<path style="fill:#ff7f69;fill-opacity:1;stroke:#ff7f69;stroke-opacity:1;stroke-width:4;" d="M 390.8,236.4 Q 401.8,236.4,409.9,245.3 Q 418,254.2,418,266.9 Q 418,279.6,409.9,288.5 Q 401.8,297.4,390.8,297.4 Q 379.8,297.4,378.3,287.7 Q 376.8,278,382.9,270.4 Q 389,262.8,384.4,249.6 Q 379.8,236.4,390.8,236.4 Z "/>
	<path style="fill:#00c2bd;fill-opacity:1;stroke:#00c2bd;stroke-opacity:1;stroke-width:4;" d="M 631.1,334 Q 677.6,363.4,711.2,437.8 Q 744.8,512.2,740.7,526.3 Q 736.6,540.4,684.3,550.9 Q 632,561.4,623.7,558.1 Q 615.4,554.8,601,476.1 Q 586.6,397.4,539.8,352.8 Q 493,308.2,538.8,306.4 Q 584.6,304.6,631.1,334 Z "/>
	<path style="fill:#00c2bd;fill-opacity:1;stroke:#00c2bd;stroke-opacity:1;stroke-width:4;" d="M 562.5,480.8 Q 598.4,480.8,623.8,519 Q 649.2,557.2,649.2,610.8 Q 649.2,664.4,623.8,702.7 Q 598.4,741,562.5,741 Q 526.6,741,501.2,702.7 Q 475.8,664.4,475.8,610.8 Q 475.8,557.2,501.2,519 Q 526.6,480.8,562.5,480.8 Z "/>
	<path style="fill:#ffffcc;fill-opacity:1;stroke:#ffffcc;stroke-opacity:1;stroke-width:4;" d="M 519.8,501.6 Q 559.6,501.6,587.7,543.1 Q 615.8,584.6,615.8,642.9 Q 615.8,701.2,587.7,742.7 Q 559.6,784.2,519.8,784.2 Q 480,784.2,451.9,742.7 Q 423.8,701.2,423.8,642.9 Q 423.8,584.6,451.9,543.1 Q 480,501.6,519.8,501.6 Z "/>
	<path style="fill:#ffffcc;fill-opacity:1;stroke:#ffffcc;stroke-opacity:1;stroke-width:4;" d="M 546.9,449.6 Q 566,449.6,579.5,460.5 Q 593,471.4,593,486.9 Q 593,502.4,579.5,513.3 Q 566,524.2,546.9,524.2 Q 527.8,524.2,514.3,513.3 Q 500.8,502.4,500.8,486.9 Q 500.8,471.4,514.3,460.5 Q 527.8,449.6,546.9,449.6 Z "/>
	<path style="fill:#00c2bd;fill-opacity:1;stroke:#00c2bd;stroke-opacity:1;stroke-width:4;" d="M 597.2,356.2 Q 627.4,372.6,641.4,402.3 Q 655.4,432,660.6,462.8 Q 665.8,493.6,651.8,523.3 Q 637.8,553,612.8,564.2 Q 587.8,575.4,573.8,545.7 Q 559.8,516,549.4,457.6 Q 539,399.2,553,369.5 Q 567,339.8,597.2,356.2 Z "/>
	<path style="fill:#00c2bd;fill-opacity:1;stroke:#00c2bd;stroke-opacity:1;stroke-width:4;" d="M 384.2,300.2 Q 435.2,289.4,462.3,303.7 Q 489.4,318,459,320.6 Q 428.6,323.2,398.7,343.6 Q 368.8,364,311.8,396.4 Q 254.8,428.8,259.3,414.4 Q 263.8,400,282.2,368.6 Q 300.6,337.2,316.9,324.1 Q 333.2,311,384.2,300.2 Z "/>
	<path style="fill:#ffffcc;fill-opacity:1;stroke:#ffffcc;stroke-opacity:1;stroke-width:4;" d="M 465.6,330.7 Q 550,336,515.8,405.4 Q 481.6,474.8,514,515.1 Q 546.4,555.4,558.3,601.2 Q 570.2,647,468.7,647 Q 367.2,647,291.1,612.4 Q 215,577.8,204.2,522.6 Q 193.4,467.4,287.3,396.4 Q 381.2,325.4,465.6,330.7 Z "/>
	<path style="fill:#00c2bd;fill-opacity:1;stroke:#00c2bd;stroke-opacity:1;stroke-width:4;" d="M 533.7,272.6 Q 573.4,284.6,566.2,297 Q 559,309.4,569.8,328.3 Q 580.6,347.2,607,360.4 Q 633.4,373.6,588.9,373.6 Q 544.4,373.6,473.3,352 Q 402.2,330.4,413,302.3 Q 423.8,274.2,458.9,267.4 Q 494,260.6,533.7,272.6 Z "/>
	<path style="fill:#ffefd8;fill-opacity:1;stroke:#ffefd8;stroke-opacity:1;stroke-width:4;" d="M 366,560.7 Q 463.2,570.2,496.2,615.7 Q 529.2,661.2,536.7,709.6 Q 544.2,758,485.7,794.8 Q 427.2,831.6,401.6,832.6 Q 376,833.6,331,796.9 Q 286,760.2,283.2,677.2 Q 280.4,594.2,274.6,572.7 Q 268.8,551.2,366,560.7 Z "/>
	<path style="fill:#ffffcc;fill-opacity:1;stroke:#ffffcc;stroke-opacity:1;stroke-width:4;" d="M 293.3,557.3 Q 312.2,568.4,300.6,564.1 Q 289,559.8,288.3,640.9 Q 287.6,722,290.4,773.6 Q 293.2,825.2,278,782.6 Q 262.8,740,257,705.3 Q 251.2,670.6,251.2,621.5 Q 251.2,572.4,262.8,559.3 Q 274.4,546.2,293.3,557.3 Z "/>
	<path style="fill:#ffffcc;fill-opacity:1;stroke:#ffffcc;stroke-opacity:1;stroke-width:4;" d="M 342.5,497.7 Q 300,494.2,298.5,505.8 Q 297,517.4,295.4,565.1 Q 293.8,612.8,331.2,649.5 Q 368.6,686.2,368.5,674.8 Q 368.4,663.4,364.3,635.7 Q 360.2,608,357.5,590.3 Q 354.8,572.6,369.9,536.9 Q 385,501.2,342.5,497.7 Z "/>
	<path style="fill:#ffffcc;fill-opacity:1;stroke:#ffffcc;stroke-opacity:1;stroke-width:4;" d="M 445.9,530.4 Q 448.2,573.8,445.8,586.6 Q 443.4,599.4,438.5,625.1 Q 433.6,650.8,426,649.2 Q 418.4,647.6,403,630.2 Q 387.6,612.8,370.4,591.4 Q 353.2,570,350.9,537.5 Q 348.6,505,396.1,496 Q 443.6,487,445.9,530.4 Z "/>
	<path style="fill:#ffffcc;fill-opacity:1;stroke:#ffffcc;stroke-opacity:1;stroke-width:4;" d="M 489.9,504.6 Q 520.2,504.6,531.5,516.1 Q 542.8,527.6,542.8,560.8 Q 542.8,594,558.3,635.1 Q 573.8,676.2,533.9,673.9 Q 494,671.6,469.3,637.1 Q 444.6,602.6,444.6,569.4 Q 444.6,536.2,452.1,520.4 Q 459.6,504.6,489.9,504.6 Z "/>
	<path style="fill:#ffffcc;fill-opacity:1;stroke:#ffffcc;stroke-opacity:1;stroke-width:4;" d="M 534.8,574.2 Q 549.4,611,560.3,639.6 Q 571.2,668.2,571.2,708.4 Q 571.2,748.6,560.3,777.2 Q 549.4,805.8,534,805.8 Q 518.6,805.8,506.1,805.8 Q 493.6,805.8,492,738.2 Q 490.4,670.6,505.3,604 Q 520.2,537.4,534.8,574.2 Z "/>
	<path style="fill:#ffefd8;fill-opacity:1;stroke:#ffefd8;stroke-opacity:1;stroke-width:4;" d="M 597.7,612.9 Q 603,612.4,606,620.4 Q 609,628.4,608.2,641.9 Q 607.4,655.4,600.1,667.8 Q 592.8,680.2,586.3,684.2 Q 579.8,688.2,583.5,675.2 Q 587.2,662.2,585.7,649 Q 584.2,635.8,588.3,624.6 Q 592.4,613.4,597.7,612.9 Z "/>
	<path style="fill:#ffc9c9;fill-opacity:1;stroke:#ffc9c9;stroke-opacity:1;stroke-width:4;" d="M 421.1,770.5 Q 442.4,767,439,774.4 Q 435.6,781.8,429.2,788.6 Q 422.8,795.4,413.2,801.8 Q 403.6,808.2,392.7,805.9 Q 381.8,803.6,370.7,791.2 Q 359.6,778.8,356.9,775.1 Q 354.2,771.4,377,772.7 Q 399.8,774,421.1,770.5 Z "/>
	<path style="fill:#fffafa;fill-opacity:1;stroke:#fffafa;stroke-opacity:1;stroke-width:4;" d="M 396.7,776.4 Q 410.4,775.2,416.7,773.7 Q 423,772.2,420.6,770.2 Q 418.2,768.2,411,768.1 Q 403.8,768,393.9,769.5 Q 384,771,375.5,770.8 Q 367,770.6,369.8,774.4 Q 372.6,778.2,377.8,777.9 Q 383,777.6,396.7,776.4 Z "/>
	<path style="fill:#fffafa;fill-opacity:1;stroke:#fffafa;stroke-opacity:1;stroke-width:4;" d="M 314.1,666.6 Q 325,666.6,331.1,670.1 Q 337.2,673.6,337.2,682.7 Q 337.2,691.8,330.8,695.4 Q 324.4,699,309,684.3 Q 293.6,669.6,292.7,663.9 Q 291.8,658.2,299.8,665.4 Q 307.8,672.6,305.5,669.6 Q 303.2,666.6,314.1,666.6 Z "/>
	<path style="fill:#fffafa;fill-opacity:1;stroke:#fffafa;stroke-opacity:1;stroke-width:4;" d="M 448.8,658.2 Q 459.2,658.2,467.9,663.4 Q 476.6,668.6,477.1,673.7 Q 477.6,678.8,472.9,684.2 Q 468.2,689.6,456.4,691.8 Q 444.6,694,427,691.9 Q 409.4,689.8,403.2,662.8 L 403.2,662.8 Q 438.4,658.2,448.8,658.2 Z "/>
	<path style="fill:#006699;fill-opacity:1;stroke:#006699;stroke-opacity:1;stroke-width:4;" d="M 316.2,665.1 Q 322.2,665.8,327.6,673.9 Q 333,682,331.8,688.9 Q 330.6,695.8,327,698 Q 323.4,700.2,316.4,702 Q 309.4,703.8,305.9,696.3 Q 302.4,688.8,299.5,678.7 Q 296.6,668.6,303.4,666.5 Q 310.2,664.4,316.2,665.1 Z "/>
	<path style="fill:#330033;fill-opacity:1;stroke:#330033;stroke-opacity:1;stroke-width:4;" d="M 310.7,661.2 Q 317.4,662.4,317.1,662.3 Q 316.8,662.2,313.3,662.1 Q 309.8,662,309.9,661.9 Q 310,661.8,305.8,662.2 Q 301.6,662.6,296,666.2 Q 290.4,669.8,285.9,667.7 Q 281.4,665.6,292.7,662.8 Q 304,660,310.7,661.2 Z "/>
	<path style="fill:#fffafa;fill-opacity:1;stroke:#fffafa;stroke-opacity:1;stroke-width:4;" d="M 324.7,688.8 Q 322.2,688.8,320.3,690 Q 318.4,691.2,318.4,692.7 Q 318.4,694.2,320.3,695.4 Q 322.2,696.6,324.7,696.6 Q 327.2,696.6,328.9,695.4 Q 330.6,694.2,330.6,692.7 Q 330.6,691.2,328.9,690 Q 327.2,688.8,324.7,688.8 Z "/>
	<path style="fill:#006699;fill-opacity:1;stroke:#006699;stroke-opacity:1;stroke-width:4;" d="M 438.7,693.4 Q 423.6,693.4,422.9,690.4 Q 422.2,687.4,418.2,681 Q 414.2,674.6,412.3,666.6 Q 410.4,658.6,429.5,658.6 Q 448.6,658.6,457.7,666.4 Q 466.8,674.2,466.8,680.6 Q 466.8,687,460.3,690.2 Q 453.8,693.4,438.7,693.4 Z "/>
	<path style="fill:#330033;fill-opacity:1;stroke:#330033;stroke-opacity:1;stroke-width:4;" d="M 434.4,655.3 Q 442.8,657.4,442.5,657.1 Q 442.2,656.8,437.8,655.9 Q 433.4,655,426.7,654.7 Q 420,654.4,413,658.4 Q 406,662.4,401.7,662.1 Q 397.4,661.8,411.7,657.5 Q 426,653.2,434.4,655.3 Z "/>
	<path style="fill:#fffafa;fill-opacity:1;stroke:#fffafa;stroke-opacity:1;stroke-width:4;" d="M 458,680.6 Q 454.8,680.6,452.3,681.9 Q 449.8,683.2,449.8,684.8 Q 449.8,686.4,452.3,687.7 Q 454.8,689,458,689 Q 461.2,689,463.4,687.7 Q 465.6,686.4,465.6,684.8 Q 465.6,683.2,463.4,681.9 Q 461.2,680.6,458,680.6 Z "/>
	<path style="fill:none;stroke:#660033;stroke-opacity:1;stroke-width:4;" d="M 290.4,650.4 Q 290.4,650.4,326.6,653 Q 362.8,655.6,334.6,701 L 334.6,701 "/>
	<path style="fill:none;stroke:#660033;stroke-opacity:1;stroke-width:4;" d="M 339,738.4 Q 339,738.4,341.2,742 Q 343.4,745.6,345.8,747.5 L 348.2,749.4 "/>
	<path style="fill:#ffa0a0;fill-opacity:0.529411764705882;stroke:#ffa0a0;stroke-opacity:0;stroke-width:4;" d="M 461.6,690.7 Q 479.2,685.2,484.3,688.5 Q 489.4,691.8,489.8,704.3 Q 490.2,716.8,483.9,720.7 Q 477.6,724.6,463.2,725.4 Q 448.8,726.2,440.4,721.3 Q 432,716.4,428.7,708.6 Q 425.4,700.8,434.7,698.5 Q 444,696.2,461.6,690.7 Z "/>
	<path style="fill:#ffa0a0;fill-opacity:0.529411764705882;stroke:#ffa0a0;stroke-opacity:0;stroke-width:4;" d="M 344.3,696.4 Q 351.6,696.4,356.7,698.9 Q 361.8,701.4,361.8,704.6 Q 361.8,707.8,356.7,710.2 Q 351.6,712.6,344.3,712.6 Q 337,712.6,332,710.2 Q 327,707.8,327,704.6 Q 327,701.4,332,698.9 Q 337,696.4,344.3,696.4 Z "/>
	<path style="fill:#ffa0a0;fill-opacity:0.529411764705882;stroke:#ffa0a0;stroke-opacity:0;stroke-width:4;" d="M 302.3,703.4 Q 307.2,701.6,310.7,703.5 Q 314.2,705.4,314.2,708 Q 314.2,710.6,310.7,712.5 Q 307.2,714.4,302.3,714.4 Q 297.4,714.4,294,712.5 Q 290.6,710.6,290.6,709.8 Q 290.6,709,294,707.1 Q 297.4,705.2,302.3,703.4 Z "/>
	<path style="fill:#ffcc66;fill-opacity:0.529411764705882;stroke:#ffcc66;stroke-opacity:0;stroke-width:4;" d="M 326.1,608.7 Q 338.4,610.2,349.1,600.5 Q 359.8,590.8,365.3,623.7 Q 370.8,656.6,362.5,656.9 Q 354.2,657.2,349.7,653.2 Q 345.2,649.2,338.9,640.3 Q 332.6,631.4,327.1,628.8 Q 321.6,626.2,317.7,616.7 Q 313.8,607.2,326.1,608.7 Z "/>
	<path style="fill:#ffcc66;fill-opacity:0.529411764705882;stroke:#ffcc66;stroke-opacity:0;stroke-width:4;" d="M 236.8,589.7 Q 250.4,606.6,267.1,606.6 Q 283.8,606.6,286.7,624.4 Q 289.6,642.2,279.8,652.3 Q 270,662.4,259.6,656 Q 249.2,649.6,235.8,640 Q 222.4,630.4,213.8,609 Q 205.2,587.6,214.2,580.2 Q 223.2,572.8,236.8,589.7 Z "/>
	<path style="fill:#ffcc66;fill-opacity:0.529411764705882;stroke:#ffcc66;stroke-opacity:0;stroke-width:4;" d="M 435.3,593.2 Q 443.8,609.2,454.2,598.7 Q 464.6,588.2,500.9,588.4 Q 537.2,588.6,532,616.3 Q 526.8,644,489.3,630.7 Q 451.8,617.4,435.4,622.3 Q 419,627.2,412.7,617.4 Q 406.4,607.6,416.6,592.4 Q 426.8,577.2,435.3,593.2 Z "/>
	<path style="fill:#ffcc66;fill-opacity:0.529411764705882;stroke:#ffcc66;stroke-opacity:0;stroke-width:4;" d="M 330.5,784 Q 369.6,815.4,371.1,846.8 Q 372.6,878.2,363.4,930.3 Q 354.2,982.4,347.2,1020.6 Q 340.2,1058.8,334.9,1061.5 Q 329.6,1064.2,324.8,1022.1 Q 320,980,318.7,928.2 Q 317.4,876.4,304.4,814.5 Q 291.4,752.6,330.5,784 Z "/>
	<path style="fill:#ffcc66;fill-opacity:0.529411764705882;stroke:#ffcc66;stroke-opacity:0;stroke-width:4;" d="M 276,680.5 Q 288.4,682.6,290.2,698.6 Q 292,714.6,292,724.8 Q 292,735,301.5,746 Q 311,757,297.1,759 Q 283.2,761,273.8,753.8 Q 264.4,746.6,264.4,736.4 Q 264.4,726.2,264,702.3 Q 263.6,678.4,276,680.5 Z "/>
	<path style="fill:#ffcc66;fill-opacity:0.529411764705882;stroke:#ffcc66;stroke-opacity:0;stroke-width:4;" d="M 244,580.8 Q 253.8,593.8,274.6,593.4 Q 295.4,593,295.4,618.9 Q 295.4,644.8,288.3,655.2 Q 281.2,665.6,270.7,667.4 Q 260.2,669.2,235.5,655.5 Q 210.8,641.8,199.4,593.1 Q 188,544.4,211.1,556.1 Q 234.2,567.8,244,580.8 Z "/>
	<path style="fill:#ffcc66;fill-opacity:0.529411764705882;stroke:#ffcc66;stroke-opacity:0;stroke-width:4;" d="M 339.5,586.7 Q 348.8,584.4,358.6,578.4 Q 368.4,572.4,365,590.9 Q 361.6,609.4,370.9,649.2 Q 380.2,689,356.3,671.5 Q 332.4,654,311.1,645.9 Q 289.8,637.8,293.1,608.4 Q 296.4,579,313.3,584 Q 330.2,589,339.5,586.7 Z "/>
	<path style="fill:#ffcc66;fill-opacity:0.529411764705882;stroke:#ffcc66;stroke-opacity:0;stroke-width:4;" d="M 451.4,557.5 Q 481.6,580.4,513.6,582.3 Q 545.6,584.2,543.4,637.7 Q 541.2,691.2,482.3,667.6 Q 423.4,644,403.4,653.9 Q 383.4,663.8,369.3,640.3 Q 355.2,616.8,378.9,600.5 Q 402.6,584.2,411.9,559.4 Q 421.2,534.6,451.4,557.5 Z "/>
	<path style="fill:#ffcc66;fill-opacity:0.529411764705882;stroke:#ffcc66;stroke-opacity:0;stroke-width:4;" d="M 277.5,664.1 Q 295.2,657.2,296.5,687 Q 297.8,716.8,304.6,749.7 Q 311.4,782.6,299.2,778.7 Q 287,774.8,274.8,773.3 Q 262.6,771.8,258.6,739.8 Q 254.6,707.8,254.6,697 Q 254.6,686.2,257.2,678.6 Q 259.8,671,277.5,664.1 Z "/>
	<path style="fill:#ffcc66;fill-opacity:0.529411764705882;stroke:#ffcc66;stroke-opacity:0;stroke-width:4;" d="M 340.9,893 Q 353.6,898.2,362.9,906.4 Q 372.2,914.6,360.2,973.5 Q 348.2,1032.4,343.6,1041.4 Q 339,1050.4,337.6,1043.9 Q 336.2,1037.4,331.6,1028.4 Q 327,1019.4,331.3,984.4 Q 335.6,949.4,331.9,918.6 Q 328.2,887.8,340.9,893 Z "/>
	<path style="fill:#000033;fill-opacity:0.329411764705882;stroke:#000033;stroke-opacity:0;stroke-width:4;" d="M 297.1,575.6 Q 305.2,585,302.2,608.1 Q 299.2,631.2,295.1,673.6 Q 291,716,306.5,810.3 Q 322,904.6,332.3,1020.3 Q 342.6,1136,315,926.2 Q 287.4,716.4,287.4,660.9 Q 287.4,605.4,288.2,585.8 Q 289,566.2,297.1,575.6 Z "/>
	<path style="fill:#000033;fill-opacity:0.329411764705882;stroke:#000033;stroke-opacity:0;stroke-width:4;" d="M 334.5,650 Q 357.4,666.2,367.2,667.4 Q 377,668.6,372.2,675.6 Q 367.4,682.6,354.1,672.6 Q 340.8,662.6,319.4,656.3 Q 298,650,298,645.2 Q 298,640.4,300.2,620.7 Q 302.4,601,307,617.4 Q 311.6,633.8,334.5,650 Z "/>
	<path style="fill:#000033;fill-opacity:0.329411764705882;stroke:#000033;stroke-opacity:0;stroke-width:4;" d="M 365.8,587.2 Q 374.2,594.6,374.9,606 Q 375.6,617.4,375.1,622.3 Q 374.6,627.2,374.4,635.1 Q 374.2,643,372.2,649.7 Q 370.2,656.4,369,639.4 Q 367.8,622.4,365.1,615.9 Q 362.4,609.4,359.9,594.6 Q 357.4,579.8,365.8,587.2 Z "/>
	<path style="fill:#000033;fill-opacity:0.329411764705882;stroke:#000033;stroke-opacity:0;stroke-width:4;" d="M 384.1,607.5 Q 395.2,620.4,399.5,627.3 Q 403.8,634.2,409.5,639.2 Q 415.2,644.2,420.9,647.9 Q 426.6,651.6,416.2,649.9 Q 405.8,648.2,400.9,645.2 Q 396,642.2,386.4,634.5 Q 376.8,626.8,374.9,610.7 Q 373,594.6,384.1,607.5 Z "/>
	<path style="fill:#000033;fill-opacity:0.329411764705882;stroke:#000033;stroke-opacity:0;stroke-width:4;" d="M 444.8,584.6 Q 448,584.6,450.3,597.6 Q 452.6,610.6,451.6,615.2 Q 450.6,619.8,448.3,632.8 Q 446,645.8,443.8,650.4 Q 441.6,655,443.3,645.7 Q 445,636.4,440.7,614.8 Q 436.4,593.2,439,588.9 Q 441.6,584.6,444.8,584.6 Z "/>
	<path style="fill:#000033;fill-opacity:0.329411764705882;stroke:#000033;stroke-opacity:0;stroke-width:4;" d="M 456.4,619.8 Q 460,627.8,470.1,635.3 Q 480.2,642.8,494.8,651.6 Q 509.4,660.4,499.3,662.4 Q 489.2,664.4,480.5,660.8 Q 471.8,657.2,464,652.7 Q 456.2,648.2,452.4,638.3 Q 448.6,628.4,450.7,620.1 Q 452.8,611.8,456.4,619.8 Z "/>
	<path style="fill:#000033;fill-opacity:0.329411764705882;stroke:#000033;stroke-opacity:0;stroke-width:4;" d="M 518.8,672.8 Q 534.6,688.4,554.2,682 Q 573.8,675.6,575.8,684.9 Q 577.8,694.2,566.4,702.9 Q 555,711.6,543.6,712.3 Q 532.2,713,521.5,700.2 Q 510.8,687.4,503.9,680 Q 497,672.6,500,664.9 Q 503,657.2,518.8,672.8 Z "/>
	<path style="fill:#000033;fill-opacity:0.329411764705882;stroke:#000033;stroke-opacity:0;stroke-width:4;" d="M 495.9,664.5 Q 488.6,659,490.2,686.6 Q 491.8,714.2,491.8,740.1 Q 491.8,766,492.9,784.4 Q 494,802.8,494.3,801.2 Q 494.6,799.6,495.7,781.2 Q 496.8,762.8,498.1,738.5 Q 499.4,714.2,501.3,692.1 Q 503.2,670,495.9,664.5 Z "/>
	<path style="fill:none;stroke:#000033;stroke-opacity:0.501960784313725;stroke-width:2;" d="M 296.2,576.2 Q 296.2,576.2,292.2,629.4 Q 288.2,682.6,297,758.6 L 297,758.6 "/>
	<path style="fill:none;stroke:#000033;stroke-opacity:0.501960784313725;stroke-width:2;" d="M 295,577 Q 295,577,303,616.4 Q 311,655.8,338.5,664.9 L 366,674 "/>
	<path style="fill:none;stroke:#000033;stroke-opacity:0.501960784313725;stroke-width:2;" d="M 362.8,588.2 Q 362.8,588.2,369.5,616.7 Q 376.2,645.2,371.6,659.9 L 367,674.6 "/>
	<path style="fill:none;stroke:#000033;stroke-opacity:0.501960784313725;stroke-width:2;" d="M 362.2,588.6 Q 362.2,588.6,379,618.2 Q 395.8,647.8,416.6,650.5 L 437.4,653.2 "/>
	<path style="fill:none;stroke:#000033;stroke-opacity:0.501960784313725;stroke-width:2;" d="M 442.2,590.2 Q 442.2,590.2,445.2,612.6 Q 448.2,635,442.8,644.6 L 437.4,654.2 "/>
	<path style="fill:none;stroke:#000033;stroke-opacity:0.501960784313725;stroke-width:2;" d="M 440.6,591 Q 440.6,591,470.6,637.5 Q 500.6,684,518.2,694 L 535.8,704 "/>
	<path style="fill:none;stroke:#000033;stroke-opacity:0.501960784313725;stroke-width:2;" d="M 535.2,704 Q 535.2,704,530.4,696.2 L 525.6,688.4 "/>
	<path style="fill:none;stroke:#000033;stroke-opacity:0.501960784313725;stroke-width:2;" d="M 524.6,688 Q 524.6,688,536.9,698 Q 549.2,708,555.9,707.2 L 562.6,706.4 "/>
	<path style="fill:none;stroke:#000033;stroke-opacity:0.501960784313725;stroke-width:2;" d="M 498.8,495.6 L 498.8,495.6 Q 524,525.4,525.3,566.7 Q 526.6,608,574.2,691.4 L 574.2,691.4 "/>
	<path style="fill:none;stroke:#000033;stroke-opacity:0.501960784313725;stroke-width:2;" d="M 561.2,706.4 Q 561.2,706.4,562.9,698.4 Q 564.6,690.4,557.9,682.4 L 551.2,674.4 "/>
	<path style="fill:none;stroke:#000033;stroke-opacity:0.501960784313725;stroke-width:2;" d="M 551.2,674.4 Q 551.2,674.4,557.9,684.9 Q 564.6,695.4,569.4,693.9 L 574.2,692.4 "/>
	<path style="fill:#000033;fill-opacity:0.329411764705882;stroke:#000033;stroke-opacity:0;stroke-width:4;" d="M 294.7,710.7 Q 292.8,680.2,295,679.4 Q 297.2,678.6,301.7,722.4 Q 306.2,766.2,332.8,790.2 Q 359.4,814.2,384.9,827.3 Q 410.4,840.4,391.7,835.6 Q 373,830.8,339,804.1 Q 305,777.4,300.8,759.3 Q 296.6,741.2,294.7,710.7 Z "/>
	<path style="fill:#000033;fill-opacity:0.329411764705882;stroke:#000033;stroke-opacity:0;stroke-width:4;" d="M 447.4,823.2 Q 459.6,817.2,473.7,809.6 Q 487.8,802,492,797.9 Q 496.2,793.8,494.3,789.7 Q 492.4,785.6,477.4,795.1 Q 462.4,804.6,445.4,813.8 Q 428.4,823,409.9,830.7 Q 391.4,838.4,413.3,833.8 Q 435.2,829.2,447.4,823.2 Z "/>
	<path style="fill:#000033;fill-opacity:0.329411764705882;stroke:#000033;stroke-opacity:0;stroke-width:4;" d="M 448.6,696 Q 455.2,695.4,460.6,693.9 Q 466,692.4,467.3,690.5 Q 468.6,688.6,464.4,688.2 Q 460.2,687.8,451.4,689.8 Q 442.6,691.8,431.4,691.5 Q 420.2,691.2,423.3,692.9 Q 426.4,694.6,434.2,695.6 Q 442,696.6,448.6,696 Z "/>
	<path style="fill:#000033;fill-opacity:0.329411764705882;stroke:#000033;stroke-opacity:0;stroke-width:4;" d="M 475.5,665.2 Q 477.4,666,478.3,668 Q 479.2,670,479.2,675.4 Q 479.2,680.8,474,685.1 Q 468.8,689.4,465.9,689.7 Q 463,690,468.9,685.7 Q 474.8,681.4,474.8,676 Q 474.8,670.6,474.2,667.5 Q 473.6,664.4,475.5,665.2 Z "/>
	<path style="fill:#000033;fill-opacity:0.329411764705882;stroke:#000033;stroke-opacity:0;stroke-width:4;" d="M 325.1,704.5 Q 329.2,703.4,332.1,702.2 Q 335,701,335,698.8 Q 335,696.6,332.1,696.8 Q 329.2,697,325.1,697 Q 321,697,315.2,698.4 Q 309.4,699.8,309.4,704.1 Q 309.4,708.4,315.2,707 Q 321,705.6,325.1,704.5 Z "/>
	<path style="fill:none;stroke:#000033;stroke-opacity:0.501960784313725;stroke-width:2;" d="M 292.8,665.6 Q 292.8,665.6,295.8,705 Q 298.8,744.4,305.7,759.9 Q 312.6,775.4,343.4,801.5 Q 374.2,827.6,393.6,833.5 Q 413,839.4,453.7,814.7 L 494.4,790 "/>
	<path style="fill:none;stroke:#000033;stroke-opacity:0.501960784313725;stroke-width:2;" d="M 494.8,669.2 L 494.8,669.2 Q 497.4,753,494,789.3 L 490.6,825.6 "/>
	<path style="fill:none;stroke:#000033;stroke-opacity:0.501960784313725;stroke-width:2;" d="M 334.8,698.2 Q 334.8,698.2,324,702.2 Q 313.2,706.2,308,703.2 Q 302.8,700.2,299.1,683.8 L 295.4,667.4 "/>
	<path style="fill:none;stroke:#000033;stroke-opacity:0.501960784313725;stroke-width:2;" d="M 422.2,692.4 Q 422.2,692.4,435.7,694.7 Q 449.2,697,464,690.1 Q 478.8,683.2,477.5,674.8 L 476.2,666.4 "/>
	<path style="fill:none;stroke:#000033;stroke-opacity:0.501960784313725;stroke-width:2;" d="M 369,770.6 Q 369,770.6,395.3,768.2 Q 421.6,765.8,435,766.5 Q 448.4,767.2,437.8,780.1 L 427.2,793 "/>
	<path style="fill:none;stroke:#000033;stroke-opacity:0.501960784313725;stroke-width:2;" d="M 357.2,778.2 Q 357.2,778.2,367.7,791.4 Q 378.2,804.6,386,806.2 L 393.8,807.8 "/>
	<path style="fill:#000033;fill-opacity:0.329411764705882;stroke:#000033;stroke-opacity:0;stroke-width:4;" d="M 551.1,627.6 Q 577.4,681,572.3,680.4 Q 567.2,679.8,563,679.9 Q 558.8,680,559.3,677.7 Q 559.8,675.4,545.5,639.2 Q 531.2,603,527.9,582.3 Q 524.6,561.6,524.7,567.9 Q 524.8,574.2,551.1,627.6 Z "/>
	<path style="fill:#26e9d8;fill-opacity:1;stroke:#26e9d8;stroke-opacity:0;stroke-width:4;" d="M 376.3,827.6 Q 384.2,831.6,396.5,868.2 Q 408.8,904.8,404.8,902.7 Q 400.8,900.6,391.5,898.9 Q 382.2,897.2,377.5,889.9 Q 372.8,882.6,372,878 Q 371.2,873.4,371.2,858.9 Q 371.2,844.4,369.8,834 Q 368.4,823.6,376.3,827.6 Z "/>
	<path style="fill:#000033;fill-opacity:0.329411764705882;stroke:#000033;stroke-opacity:0;stroke-width:4;" d="M 374.2,845.4 Q 381,884,378.8,899.5 Q 376.6,915,362.3,980.7 Q 348,1046.4,329.1,1088.9 Q 310.2,1131.4,307.7,1132 Q 305.2,1132.6,325.3,1082.2 Q 345.4,1031.8,358.1,964.9 Q 370.8,898,369.1,852.4 Q 367.4,806.8,374.2,845.4 Z "/>
	<path style="fill:#000033;fill-opacity:0.329411764705882;stroke:#000033;stroke-opacity:0;stroke-width:4;" d="M 359,697.3 Q 357.4,698.8,356.1,701.7 Q 354.8,704.6,351.8,707.4 Q 348.8,710.2,348,711.3 Q 347.2,712.4,350.6,711.9 Q 354,711.4,356.5,709.3 Q 359,707.2,360.5,704.1 Q 362,701,361.3,698.4 Q 360.6,695.8,359,697.3 Z "/>
	<path style="fill:#ffcc66;fill-opacity:0.529411764705882;stroke:#ffcc66;stroke-opacity:0;stroke-width:4;" d="M 512.7,752.1 Q 528.8,732,554.6,718.3 Q 580.4,704.6,596.8,684 Q 613.2,663.4,603.4,700.8 Q 593.6,738.2,580.6,765.2 Q 567.6,792.2,544.7,805.5 Q 521.8,818.8,504.4,822 Q 487,825.2,491.8,798.7 Q 496.6,772.2,512.7,752.1 Z "/>
	<path style="fill:#ffcc66;fill-opacity:0.529411764705882;stroke:#ffcc66;stroke-opacity:0;stroke-width:4;" d="M 564.5,745.5 Q 573.4,714.2,585,704.7 Q 596.6,695.2,596.6,706.9 Q 596.6,718.6,578.8,755.4 Q 561,792.2,538.2,805.3 Q 515.4,818.4,506,811.2 Q 496.6,804,507.3,789.6 Q 518,775.2,536.8,776 Q 555.6,776.8,564.5,745.5 Z "/>
	<path style="fill:#000033;fill-opacity:0.329411764705882;stroke:#000033;stroke-opacity:0;stroke-width:4;" d="M 579.9,690.1 Q 579,687.8,574.1,702.9 Q 569.2,718,560.4,749.4 Q 551.6,780.8,544.6,796.2 Q 537.6,811.6,544,809.5 Q 550.4,807.4,557.6,791.3 Q 564.8,775.2,571,747.2 Q 577.2,719.2,579,705.8 Q 580.8,692.4,579.9,690.1 Z "/>
	<path style="fill:none;stroke:#000033;stroke-opacity:0.501960784313725;stroke-width:2;" d="M 583.4,562.6 Q 583.4,562.6,587.7,630.6 Q 592,698.6,568.1,753.4 L 544.2,808.2 "/>
	<path style="fill:#000033;fill-opacity:0.329411764705882;stroke:#000033;stroke-opacity:0;stroke-width:4;" d="M 598.3,626.4 Q 594,628.6,590.6,635.9 Q 587.2,643.2,588.8,648 Q 590.4,652.8,589.1,659.3 Q 587.8,665.8,589.6,670.5 Q 591.4,675.2,592.4,667.9 Q 593.4,660.6,595.7,658.4 Q 598,656.2,600.3,640.2 Q 602.6,624.2,598.3,626.4 Z "/>
	<path style="fill:none;stroke:#000033;stroke-opacity:0.501960784313725;stroke-width:2;" d="M 597.8,631.8 Q 597.8,631.8,595.3,634.4 Q 592.8,637,591.4,641.1 L 590,645.2 "/>
	<path style="fill:none;stroke:#000033;stroke-opacity:0.501960784313725;stroke-width:2;" d="M 593.6,640.4 Q 593.6,640.4,594.9,643.2 Q 596.2,646,593.3,655.4 L 590.4,664.8 "/>
	<path style="fill:#000033;fill-opacity:0.329411764705882;stroke:#000033;stroke-opacity:0;stroke-width:4;" d="M 646.2,558.4 L 646.2,558.4 Q 664.4,603.2,652.7,650.5 Q 641,697.8,623.3,717.5 Q 605.6,737.2,599.3,739.4 Q 593,741.6,603.6,717.4 Q 614.2,693.2,616.4,654.7 Q 618.6,616.2,604.6,568.2 L 604.6,568.2 Z "/>
	<path style="fill:#000033;fill-opacity:0.329411764705882;stroke:#000033;stroke-opacity:0;stroke-width:4;" d="M 607.4,568.7 Q 612.6,569,617.7,597.3 Q 622.8,625.6,620.4,670.8 Q 618,716,596.8,748.8 Q 575.6,781.6,570.9,784.1 Q 566.2,786.6,586.7,744.9 Q 607.2,703.2,610.4,662.5 Q 613.6,621.8,607.9,595.1 Q 602.2,568.4,607.4,568.7 Z "/>
	<path style="fill:#ffefd8;fill-opacity:1;stroke:#ffefd8;stroke-opacity:1;stroke-width:4;" d="M 484,826 Q 484.8,826,488.8,824.6 L 488.8,824.6 Q 488.2,813.4,491,799.8 L 491,799.8 L 474,811.4 Q 478.6,819.6,483.2,826 L 483.2,826 Z "/>
	<path style="fill:none;stroke:#000033;stroke-opacity:0.501960784313725;stroke-width:4;" d="M 469.6,806.2 Q 469.6,806.2,473.8,811.6 Q 478,817,483.2,828 L 483.2,828 "/>
	<path style="fill:none;stroke:#000033;stroke-opacity:0.501960784313725;stroke-width:4;" d="M 603.6,569.4 Q 603.6,569.4,623.1,622.2 Q 642.6,675,606.4,729.5 L 570.2,784 "/>
	<path style="fill:#000033;fill-opacity:0.329411764705882;stroke:#000033;stroke-opacity:0;stroke-width:4;" d="M 587.9,621.6 Q 590.2,618.6,593.9,615.9 Q 597.6,613.2,600.7,617.3 Q 603.8,621.4,605,628.6 Q 606.2,635.8,603.3,654.9 Q 600.4,674,589.8,678 Q 579.2,682,579.1,687.3 Q 579,692.6,584.1,688.3 Q 589.2,684,594.9,681.2 Q 600.6,678.4,606.1,664.1 Q 611.6,649.8,610.2,636.6 Q 608.8,623.4,606.2,618.4 Q 603.6,613.4,599.9,610.9 Q 596.2,608.4,591,610.4 Q 585.8,612.4,585.3,615.7 Q 584.8,619,585.2,621.8 Q 585.6,624.6,587.9,621.6 Z "/>
	<path style="fill:none;stroke:#000033;stroke-opacity:0.501960784313725;stroke-width:2;" d="M 584.6,621.6 Q 584.6,621.6,588.4,615 Q 592.2,608.4,600.9,615.7 Q 609.6,623,606.3,650.8 Q 603,678.6,591.2,682.8 L 579.4,687 "/>
	<path style="fill:#ffefd8;fill-opacity:1;stroke:#ffefd8;stroke-opacity:0;stroke-width:4;" d="M 609.4,752.8 L 609.4,752.8 L 596,741 Q 589.4,756.6,578,774.6 L 578,774.6 Q 595.6,760.2,609.4,752.8 Z "/>
	<path style="fill:#000033;fill-opacity:0.329411764705882;stroke:#000033;stroke-opacity:0;stroke-width:4;" d="M 605.8,740.8 Q 611.6,745,615,746.6 Q 618.4,748.2,613.2,750.6 Q 608,753,600.1,746.4 Q 592.2,739.8,596.1,738.2 Q 600,736.6,605.8,740.8 Z "/>
	<path style="fill:none;stroke:#000033;stroke-opacity:0.501960784313725;stroke-width:4;" d="M 595.6,737 Q 595.6,737,599.8,741.7 Q 604,746.4,609.1,748.2 L 614.2,750 "/>
	<path style="fill:none;stroke:#000033;stroke-opacity:0.501960784313725;stroke-width:4;" d="M 644.6,559.2 Q 644.6,559.2,651.5,592.4 Q 658.4,625.6,642.9,665.6 Q 627.4,705.6,614.7,717.9 Q 602,730.2,601.2,729.6 L 600.4,729 "/>
	<path style="fill:#ffcc66;fill-opacity:0.529411764705882;stroke:#ffcc66;stroke-opacity:0;stroke-width:4;" d="M 435,341.7 Q 449.6,354,549.6,371.2 L 549.6,371.2 Q 531,423.2,569.2,540.6 L 569.2,540.6 Q 469.4,426,443.5,413.5 Q 417.6,401,380.9,407.9 Q 344.2,414.8,325.4,388.5 Q 306.6,362.2,420.4,329.4 L 420.4,329.4 Z "/>
	<path style="fill:#ffcc66;fill-opacity:0.529411764705882;stroke:#ffcc66;stroke-opacity:0;stroke-width:4;" d="M 393,337 L 393,337 L 420.4,330.2 Q 451.8,353.6,549.4,372.4 L 549.4,372.4 Q 539.2,405.6,544,441.2 L 544,441.2 Q 495,402.4,477.2,387.8 Q 459.4,373.2,439.9,367.3 Q 420.4,361.4,394.6,360.9 Q 368.8,360.4,393,337 Z "/>
	<path style="fill:#ffcc66;fill-opacity:0.529411764705882;stroke:#ffcc66;stroke-opacity:0;stroke-width:4;" d="M 471.2,810.6 L 471.2,810.6 Q 478,818.2,482,827.6 L 482,827.6 Q 419.4,857,405.4,901.4 L 405.4,901.4 Q 396,855.4,380.8,831.2 L 380.8,831.2 Q 399.2,847.6,471.2,810.6 Z "/>
	<path style="fill:#ffcc66;fill-opacity:0.529411764705882;stroke:#ffcc66;stroke-opacity:0;stroke-width:4;" d="M 471.2,810.6 L 471.2,810.6 Q 478,818.2,482,827.6 L 482,827.6 Q 419.4,857,407.6,892.6 L 407.6,892.6 Q 398.2,846.6,410.4,833.8 L 410.4,833.8 Q 452.6,826.2,471.2,810.6 Z "/>
	<path style="fill:#330033;fill-opacity:0.329411764705882;stroke:#330033;stroke-opacity:0;stroke-width:4;" d="M 600.6,448.1 Q 553,358,545.3,354.8 Q 537.6,351.6,529.5,347.4 Q 521.4,343.2,514.3,346.4 Q 507.2,349.6,495.9,348.3 Q 484.6,347,459.2,335.1 Q 433.8,323.2,423.7,310.9 Q 413.6,298.6,404,312.5 Q 394.4,326.4,383.1,335.1 Q 371.8,343.8,389.9,341.2 Q 408,338.6,442.7,354 Q 477.4,369.4,507.9,372 Q 538.4,374.6,540.3,405.2 Q 542.2,435.8,548.1,414.7 Q 554,393.6,562.9,400.9 Q 571.8,408.2,597.2,485.3 Q 622.6,562.4,631,562.5 Q 639.4,562.6,643.8,550.4 Q 648.2,538.2,600.6,448.1 Z "/>
	<path style="fill:#330033;fill-opacity:1;stroke:#330033;stroke-opacity:0;stroke-width:4;" d="M 402.6,669.4 Q 401,668,399.6,666.3 Q 398.2,664.6,398.3,663.5 Q 398.4,662.4,399.9,661.9 Q 401.4,661.4,403.8,661.4 Q 406.2,661.4,406.3,662.4 Q 406.4,663.4,405.2,663.9 Q 404,664.4,404.1,667.6 Q 404.2,670.8,402.6,669.4 Z "/>
	<path style="fill:#330033;fill-opacity:0.329411764705882;stroke:#330033;stroke-opacity:0;stroke-width:4;" d="M 570.5,308.1 Q 583.8,317.6,593,322.5 Q 602.2,327.4,610.7,334.8 Q 619.2,342.2,618,356.1 Q 616.8,370,610.5,373 Q 604.2,376,580.5,366.6 Q 556.8,357.2,537.3,348.8 Q 517.8,340.4,537.5,319.5 Q 557.2,298.6,570.5,308.1 Z "/>
	<path style="fill:none;stroke:#000000;stroke-opacity:0.501960784313725;stroke-width:4;" d="M 420.6,330.4 Q 420.6,330.4,371.4,342.6 Q 322.2,354.8,255.7,419 Q 189.2,483.2,191.7,555.2 Q 194.2,627.2,218,657.6 L 241.8,688 "/>
	<path style="fill:none;stroke:#000000;stroke-opacity:0.501960784313725;stroke-width:4;" d="M 421.8,329 Q 421.8,329,415,311 Q 408.2,293,427.1,279.3 Q 446,265.6,465.3,263.2 Q 484.6,260.8,520.5,267.8 Q 556.4,274.8,563.5,284.7 L 570.6,294.6 "/>
	<path style="fill:none;stroke:#000000;stroke-opacity:0.501960784313725;stroke-width:4;" d="M 565.6,307 Q 565.6,307,571.9,297.9 Q 578.2,288.8,560.4,296.1 Q 542.6,303.4,531.4,324.6 Q 520.2,345.8,534.6,359 L 549,372.2 "/>
	<path style="fill:none;stroke:#000000;stroke-opacity:0.501960784313725;stroke-width:4;" d="M 549,303.4 Q 549,303.4,575.4,307 Q 601.8,310.6,642.8,339.6 Q 683.8,368.6,715.2,440 Q 746.6,511.4,742.2,527.4 Q 737.8,543.4,687.4,551.6 Q 637,559.8,617.8,566 Q 598.6,572.2,584.9,564.5 Q 571.2,556.8,553.3,482.9 Q 535.4,409,541.8,391.4 L 548.2,373.8 "/>
	<path style="fill:none;stroke:#000000;stroke-opacity:0.501960784313725;stroke-width:4;" d="M 421.8,329 Q 421.8,329,444.2,344.2 Q 466.6,359.4,508.2,365.4 L 549.8,371.4 "/>
	<path style="fill:none;stroke:#000000;stroke-opacity:0.501960784313725;stroke-width:4;" d="M 548.4,372.4 Q 548.4,372.4,566.4,386.2 Q 584.4,400,616.4,479.8 L 648.4,559.6 "/>
	<path style="fill:none;stroke:#000000;stroke-opacity:0.501960784313725;stroke-width:4;" d="M 417.4,291.6 Q 417.4,291.6,381.8,297.2 Q 346.2,302.8,318.9,320.3 Q 291.6,337.8,273.9,376.7 L 256.2,415.6 "/>
	<path style="fill:none;stroke:#000000;stroke-opacity:0.501960784313725;stroke-width:4;" d="M 240.2,689 Q 240.2,689,242.7,795.8 Q 245.2,902.6,305.8,1131.6 L 305.8,1131.6 "/>
	<path style="fill:none;stroke:#000000;stroke-opacity:0.501960784313725;stroke-width:4;" d="M 366.2,819 Q 366.2,819,380.8,875.9 Q 395.4,932.8,351.8,1031.9 L 308.2,1131 "/>
	<path style="fill:none;stroke:#000000;stroke-opacity:0.501960784313725;stroke-width:2;" d="M 246.6,813 Q 246.6,813,233.4,837.4 Q 220.2,861.8,199.8,880.6 L 179.4,899.4 "/>
	<path style="fill:none;stroke:#000000;stroke-opacity:0.501960784313725;stroke-width:2;" d="M 252.2,864.2 Q 252.2,864.2,236.2,878.6 Q 220.2,893,199.8,895.8 L 179.4,898.6 "/>
	<path style="fill:none;stroke:#000000;stroke-opacity:0.501960784313725;stroke-width:4;" d="M 374.6,824.2 Q 374.6,824.2,387,844.2 Q 399.4,864.2,401.9,883.8 L 404.4,903.4 "/>
	<path style="fill:#ff3333;fill-opacity:0.329411764705882;stroke:#ff3333;stroke-opacity:0;stroke-width:4;" d="M 410.3,246.7 Q 422.4,263.4,438.2,266.4 Q 454,269.4,411.4,277.3 Q 368.8,285.2,327,290 Q 285.2,294.8,327,281.2 Q 368.8,267.6,383.8,263.5 Q 398.8,259.4,382.2,248.4 Q 365.6,237.4,357.3,223.9 Q 349,210.4,373.6,220.2 Q 398.2,230,410.3,246.7 Z "/>
	<path style="fill:#ff3333;fill-opacity:0.329411764705882;stroke:#ff3333;stroke-opacity:0;stroke-width:4;" d="M 261.5,351 Q 279.2,348,278.6,357 Q 278,366,265.6,392.8 Q 253.2,419.6,233.8,441.3 Q 214.4,463,203.2,481.2 Q 192,499.4,171.3,474.3 Q 150.6,449.2,172.6,424.8 Q 194.6,400.4,219.2,377.2 Q 243.8,354,261.5,351 Z "/>
	<path style="fill:none;stroke:#000000;stroke-opacity:0.501960784313725;stroke-width:4;" d="M 420.8,260 Q 420.8,260,403.6,240.9 Q 386.4,221.8,360.9,210.4 Q 335.4,199,300.8,192.6 Q 266.2,186.2,242.4,193.1 Q 218.6,200,226.1,212.6 Q 233.6,225.2,239,238 Q 244.4,250.8,253.2,255.4 Q 262,260,280.2,253.4 Q 298.4,246.8,328.6,246.4 Q 358.8,246,371,249.8 Q 383.2,253.6,385.9,257.4 L 388.6,261.2 "/>
	<path style="fill:none;stroke:#000000;stroke-opacity:0.501960784313725;stroke-width:4;" d="M 444,270.6 Q 444,270.6,438.4,265.7 Q 432.8,260.8,423.3,260.3 Q 413.8,259.8,378.8,264.1 Q 343.8,268.4,307.8,279.3 Q 271.8,290.2,266.1,305.6 Q 260.4,321,265.8,333.6 Q 271.2,346.2,276.2,354.9 L 281.2,363.6 "/>
	<path style="fill:none;stroke:#000000;stroke-opacity:0.501960784313725;stroke-width:4;" d="M 266.2,335.4 Q 266.2,335.4,240,345.3 Q 213.8,355.2,168,396.2 Q 122.2,437.2,129,452 Q 135.8,466.8,152.2,489.8 Q 168.6,512.8,178.1,513.2 Q 187.6,513.6,193,501.7 Q 198.4,489.8,209.7,474.7 L 221,459.6 "/>
	<path style="fill:#ffffcc;fill-opacity:1;stroke:#ffffcc;stroke-opacity:0;stroke-width:4;" d="M 647.9,733.3 Q 684.6,717.8,739.2,711.4 L 739.2,711.4 L 750.6,722.2 Q 679,725.6,630.2,753 Q 581.4,780.4,560,797.2 Q 538.6,814,567.3,787.8 Q 596,761.6,603.6,755.2 Q 611.2,748.8,647.9,733.3 Z "/>
	<path style="fill:#cc3333;fill-opacity:0.329411764705882;stroke:#cc3333;stroke-opacity:0;stroke-width:4;" d="M 643,758.3 Q 674.6,745.8,682.5,769.8 Q 690.4,793.8,679,799.8 Q 667.6,805.8,646.9,807.4 Q 626.2,809,612.4,809 Q 598.6,809,585.4,809.2 Q 572.2,809.4,572.2,800.9 Q 572.2,792.4,591.8,781.6 Q 611.4,770.8,643,758.3 Z "/>
	<path style="fill:#cc3333;fill-opacity:0.329411764705882;stroke:#cc3333;stroke-opacity:0;stroke-width:4;" d="M 581.4,902.4 Q 607.6,909.2,613.9,935.4 Q 620.2,961.6,615.6,977.2 Q 611,992.8,605.7,1015.8 Q 600.4,1038.8,595.2,1049.5 Q 590,1060.2,570.5,1015.5 Q 551,970.8,544.7,946 Q 538.4,921.2,546.8,908.4 Q 555.2,895.6,581.4,902.4 Z "/>
	<path style="fill:#cc3333;fill-opacity:0.329411764705882;stroke:#cc3333;stroke-opacity:0;stroke-width:4;" d="M 581.8,983.9 Q 588.8,988.2,590.4,998 Q 592,1007.8,599.5,1031.2 Q 607,1054.6,604.5,1069.6 Q 602,1084.6,593.8,1064.1 Q 585.6,1043.6,580.9,1035 Q 576.2,1026.4,568.9,1012.8 Q 561.6,999.2,568.2,989.4 Q 574.8,979.6,581.8,983.9 Z "/>
	<path style="fill:none;stroke:#000000;stroke-opacity:0.501960784313725;stroke-width:4;" d="M 425.8,160.2 Q 425.8,160.2,441,139.4 Q 456.2,118.6,475.4,117 L 494.6,115.4 "/>
	<path style="fill:none;stroke:#000000;stroke-opacity:0.501960784313725;stroke-width:4;" d="M 456.2,169.8 Q 456.2,169.8,495.4,120.2 Q 534.6,70.6,592.6,75.4 L 650.6,80.2 "/>
	<path style="fill:none;stroke:#000000;stroke-opacity:0.501960784313725;stroke-width:4;" d="M 441,73 Q 441,73,397,102.6 Q 353,132.2,375.8,183.4 L 398.6,234.6 "/>
	<path style="fill:none;stroke:#000000;stroke-opacity:0.501960784313725;stroke-width:4;" d="M 540.6,161 Q 540.6,161,584.6,130.7 Q 628.6,100.4,752.1,104 Q 875.6,107.6,918.3,144 L 961,180.4 "/>
	<path style="fill:none;stroke:#000000;stroke-opacity:0.501960784313725;stroke-width:4;" d="M 854.4,159.2 Q 854.4,159.2,984.6,212.1 Q 1114.8,265,1117,405.4 L 1119.2,545.8 "/>
	<path style="fill:none;stroke:#000000;stroke-opacity:0.501960784313725;stroke-width:4;" d="M 1069.8,552.2 Q 1069.8,552.2,1054.8,542.2 Q 1039.8,532.2,1026.4,590.8 Q 1013,649.4,1026.8,672.9 L 1040.6,696.4 "/>
	<path style="fill:none;stroke:#000000;stroke-opacity:0.501960784313725;stroke-width:4;" d="M 981.4,615.6 Q 981.4,615.6,985.1,652.2 Q 988.8,688.8,1038.6,712.7 Q 1088.4,736.6,1131.4,725.7 Q 1174.4,714.8,1185.3,697.9 L 1196.2,681 "/>
	<path style="fill:none;stroke:#000000;stroke-opacity:0.501960784313725;stroke-width:4;" d="M 1195.8,682 Q 1195.8,682,1187.8,706.5 Q 1179.8,731,1158.5,746.2 L 1137.2,761.4 "/>
	<path style="fill:none;stroke:#000000;stroke-opacity:0.501960784313725;stroke-width:4;" d="M 1168.8,757 Q 1168.8,757,1131.8,784.3 Q 1094.8,811.6,1054.1,811.6 L 1013.4,811.6 "/>
	<path style="fill:none;stroke:#000000;stroke-opacity:0.501960784313725;stroke-width:4;" d="M 1012.2,811.4 Q 1012.2,811.4,1017.8,829.8 Q 1023.4,848.2,1017.9,864.3 L 1012.4,880.4 "/>
	<path style="fill:none;stroke:#000000;stroke-opacity:0.501960784313725;stroke-width:4;" d="M 1012.6,883.2 Q 1012.6,883.2,1033.4,952.2 Q 1054.2,1021.2,1125.6,1038.7 L 1197,1056.2 "/>
	<path style="fill:none;stroke:#000000;stroke-opacity:0.501960784313725;stroke-width:4;" d="M 934.2,937.4 Q 934.2,937.4,934.8,942.7 L 935.4,948 "/>
	<path style="fill:none;stroke:#000000;stroke-opacity:0.501960784313725;stroke-width:4;" d="M 933.6,936.2 Q 933.6,936.2,937.3,936.2 L 941,936.2 "/>
	<path style="fill:none;stroke:#000000;stroke-opacity:0.501960784313725;stroke-width:4;" d="M 941,936.2 Q 941,936.2,955.5,944.1 Q 970,952,975.5,953.4 L 981,954.8 "/>
	<path style="fill:none;stroke:#000000;stroke-opacity:0.501960784313725;stroke-width:4;" d="M 982.2,954.8 Q 982.2,954.8,1009,998.8 Q 1035.8,1042.8,1081.3,1043.7 L 1126.8,1044.6 "/>
	<path style="fill:none;stroke:#000000;stroke-opacity:0.501960784313725;stroke-width:4;" d="M 1126.6,1044 Q 1126.6,1044,1144.9,1050.5 Q 1163.2,1057,1179.3,1056.3 L 1195.4,1055.6 "/>
	<path style="fill:none;stroke:#000000;stroke-opacity:0.501960784313725;stroke-width:2;" d="M 1136.8,762.2 Q 1136.8,762.2,1144.4,762 Q 1152,761.8,1167.8,756.6 L 1167.8,756.6 "/>
	<path style="fill:none;stroke:#000000;stroke-opacity:0.501960784313725;stroke-width:2;" d="M 982.2,618 Q 982.2,618,990.4,645.2 Q 998.6,672.4,1018.9,684.9 L 1039.2,697.4 "/>
	<path style="fill:none;stroke:#000000;stroke-opacity:0.501960784313725;stroke-width:2;" d="M 988.2,399 Q 988.2,399,1019.8,435.7 Q 1051.4,472.4,1061.5,512.9 L 1071.6,553.4 "/>
	<path style="fill:none;stroke:#000000;stroke-opacity:0.501960784313725;stroke-width:2;" d="M 987.2,399.4 Q 987.2,399.4,1021.4,425.7 Q 1055.6,452,1064.1,488.7 L 1072.6,525.4 "/>
	<path style="fill:none;stroke:#000000;stroke-opacity:0.501960784313725;stroke-width:2;" d="M 1052.2,410 Q 1052.2,410,1064.7,438.2 Q 1077.2,466.4,1075,495.7 L 1072.8,525 "/>
	<path style="fill:none;stroke:#000000;stroke-opacity:0.501960784313725;stroke-width:2;" d="M 1052.2,410.4 Q 1052.2,410.4,1079.4,434.4 Q 1106.6,458.4,1113.1,501.7 L 1119.6,545 "/>
	<path style="fill:none;stroke:#000000;stroke-opacity:0.501960784313725;stroke-width:2;" d="M 854.6,157.8 Q 854.6,157.8,879.4,157.4 Q 904.2,157,933,168.6 L 961.8,180.2 "/>
	<path style="fill:none;stroke:#000000;stroke-opacity:0.501960784313725;stroke-width:2;" d="M 441.8,72.2 Q 441.8,72.2,427.5,91.8 Q 413.2,111.4,419.5,135.8 L 425.8,160.2 "/>
	<path style="fill:none;stroke:#000000;stroke-opacity:0.501960784313725;stroke-width:2;" d="M 455.4,169.6 Q 455.4,169.6,461.4,152.9 Q 467.4,136.2,481.1,126.3 L 494.8,116.4 "/>
	<path style="fill:none;stroke:#000000;stroke-opacity:0.501960784313725;stroke-width:2;" d="M 650,80.8 Q 650,80.8,617.7,89.2 Q 585.4,97.6,562.4,129.6 L 539.4,161.6 "/>
	<path style="fill:none;stroke:#000000;stroke-opacity:0.501960784313725;stroke-width:4;" d="M 788.2,802 Q 788.2,802,792.2,767.5 Q 796.2,733,786.2,724.5 Q 776.2,716,702.2,728 Q 628.2,740,590.2,774.5 L 552.2,809 "/>
	<path style="fill:none;stroke:#000000;stroke-opacity:0.501960784313725;stroke-width:4;" d="M 788.4,805.2 Q 788.4,805.2,721.7,805.6 Q 655,806,594.8,806.9 Q 534.6,807.8,486,828.7 Q 437.4,849.6,417.4,876.4 Q 397.4,903.2,407.3,966.6 Q 417.2,1030,425.7,1130.3 Q 434.2,1230.6,442.8,1252.2 L 451.4,1273.8 "/>
	<path style="fill:none;stroke:#000000;stroke-opacity:0.501960784313725;stroke-width:2;" d="M 748.6,721.4 Q 748.6,721.4,743.9,716.4 L 739.2,711.4 "/>
	<path style="fill:none;stroke:#000000;stroke-opacity:0.501960784313725;stroke-width:2;" d="M 738.2,712 Q 738.2,712,696.2,718 Q 654.2,724,614.6,749.2 Q 575,774.4,558.6,792.7 L 542.2,811 "/>
	<path style="fill:none;stroke:#000000;stroke-opacity:0.501960784313725;stroke-width:4;" d="M 502.8,882.8 Q 502.8,882.8,534,931.3 Q 565.2,979.8,598.9,1073.8 Q 632.6,1167.8,646.8,1226 L 661,1284.2 "/>
	<path style="fill:none;stroke:#000000;stroke-opacity:0.501960784313725;stroke-width:4;" d="M 788.2,802.2 Q 788.2,802.2,847.1,854.2 Q 906,906.2,951.5,973.5 Q 997,1040.8,1040.6,1079.8 Q 1084.2,1118.8,1144,1123.2 Q 1203.8,1127.6,1250,1173 L 1296.2,1218.4 "/>
	<path style="fill:none;stroke:#000000;stroke-opacity:0.501960784313725;stroke-width:2;" d="M 762.2,853 Q 762.2,853,779.2,861.5 Q 796.2,870,853.7,951 L 911.2,1032 "/>
	<path style="fill:#330033;fill-opacity:0.164705882352941;stroke:#000000;stroke-opacity:0;stroke-width:4;" d="M 812,1138.9 Q 927.2,1133.8,978.5,1108.9 Q 1029.8,1084,1022.5,1070.1 Q 1015.2,1056.2,1035,1073.3 Q 1054.8,1090.4,1061.8,1099.9 Q 1068.8,1109.4,1044.7,1126.3 Q 1020.6,1143.2,931.4,1156.1 Q 842.2,1169,743.5,1170.9 Q 644.8,1172.8,636.7,1169.6 Q 628.6,1166.4,620.6,1143.2 Q 612.6,1120,625.3,1126.8 Q 638,1133.6,667.4,1138.8 Q 696.8,1144,812,1138.9 Z "/>
	<path style="fill:#330033;fill-opacity:0.164705882352941;stroke:#000000;stroke-opacity:0;stroke-width:4;" d="M 892.8,1152.6 Q 910.6,1153,951.6,1207 Q 992.6,1261,992.6,1280 Q 992.6,1299,965.6,1266.6 Q 938.6,1234.2,921.8,1212.2 Q 905,1190.2,865.7,1176.6 Q 826.4,1163,850.7,1157.6 Q 875,1152.2,892.8,1152.6 Z "/>
	<path style="fill:#330033;fill-opacity:0.164705882352941;stroke:#000000;stroke-opacity:0;stroke-width:4;" d="M 747.1,1167.1 Q 773.8,1172.2,789.2,1220.6 Q 804.6,1269,790.6,1292.4 Q 776.6,1315.8,770.4,1285.4 Q 764.2,1255,761.4,1228.6 Q 758.6,1202.2,718.4,1183.5 Q 678.2,1164.8,699.3,1163.4 Q 720.4,1162,747.1,1167.1 Z "/>
	<path style="fill:#330033;fill-opacity:0.164705882352941;stroke:#000000;stroke-opacity:0;stroke-width:4;" d="M 1033.7,1116.8 Q 1052.4,1116.2,1114.7,1169.5 Q 1177,1222.8,1213.4,1265.7 Q 1249.8,1308.6,1219.7,1286.7 Q 1189.6,1264.8,1136.4,1218.9 Q 1083.2,1173,1036.3,1152.4 Q 989.4,1131.8,1002.2,1124.6 Q 1015,1117.4,1033.7,1116.8 Z "/>
	<path style="fill:none;stroke:#000000;stroke-opacity:0.501960784313725;stroke-width:4;" d="M 999,1038.6 Q 999,1038.6,978.9,1060.9 Q 958.8,1083.2,830.5,1093.9 Q 702.2,1104.6,650.6,1091 L 599,1077.4 "/>
	<path style="fill:none;stroke:#000000;stroke-opacity:0.501960784313725;stroke-width:4;" d="M 626.6,1161 Q 626.6,1161,721.4,1164.9 Q 816.2,1168.8,926.6,1144.9 Q 1037,1121,1043.4,1104.6 L 1049.8,1088.2 "/>
	<path style="fill:none;stroke:#000000;stroke-opacity:0.501960784313725;stroke-width:2;" d="M 692.6,1162.8 Q 692.6,1162.8,728.9,1170.5 Q 765.2,1178.2,767.9,1229.9 L 770.6,1281.6 "/>
	<path style="fill:none;stroke:#000000;stroke-opacity:0.501960784313725;stroke-width:2;" d="M 893,1151.6 Q 893,1151.6,919.8,1164.4 Q 946.6,1177.2,971,1229.2 L 995.4,1281.2 "/>
	<path style="fill:none;stroke:#000000;stroke-opacity:0.501960784313725;stroke-width:2;" d="M 989.8,1128.6 Q 989.8,1128.6,1020.7,1135.2 Q 1051.6,1141.8,1139.6,1217.3 L 1227.6,1292.8 "/>
</svg>
